<svg xmlns="http://www.w3.org/2000/svg" xmlns:xlink="http://www.w3.org/1999/xlink" width="500" zoomAndPan="magnify" viewBox="0 0 375 374.999991" height="500" preserveAspectRatio="xMidYMid meet" version="1.0"><defs><g/><clipPath id="8c5c45648a"><path d="M 110.753906 115.449219 L 214.253906 115.449219 L 214.253906 173.199219 L 110.753906 173.199219 Z M 110.753906 115.449219 " clip-rule="nonzero"/></clipPath><clipPath id="0c27773e96"><path d="M 72.644531 131.140625 L 302.691406 131.140625 L 302.691406 195 L 72.644531 195 Z M 72.644531 131.140625 " clip-rule="nonzero"/></clipPath><clipPath id="d32de3670e"><path d="M 72.644531 161.171875 L 302.691406 161.171875 L 302.691406 199.640625 L 72.644531 199.640625 Z M 72.644531 161.171875 " clip-rule="nonzero"/></clipPath><clipPath id="31048e966c"><path d="M 72.644531 157.152344 L 164.261719 157.152344 L 164.261719 196.195312 L 72.644531 196.195312 Z M 72.644531 157.152344 " clip-rule="nonzero"/></clipPath><clipPath id="6065cead08"><path d="M 72.644531 172.65625 L 120.609375 172.65625 L 120.609375 193.324219 L 72.644531 193.324219 Z M 72.644531 172.65625 " clip-rule="nonzero"/></clipPath><clipPath id="7d95c975b4"><path d="M 240 184 L 284 184 L 284 215.140625 L 240 215.140625 Z M 240 184 " clip-rule="nonzero"/></clipPath><clipPath id="b5e6c9a985"><path d="M 72.644531 162 L 302.691406 162 L 302.691406 199.640625 L 72.644531 199.640625 Z M 72.644531 162 " clip-rule="nonzero"/></clipPath></defs><rect x="-37.5" width="450" fill="#ffffff" y="-37.499999" height="449.999989" fill-opacity="1"/><rect x="-37.5" width="450" fill="#ffffff" y="-37.499999" height="449.999989" fill-opacity="1"/><rect x="-37.5" width="450" fill="#121640" y="-37.499999" height="449.999989" fill-opacity="1"/><g clip-path="url(#8c5c45648a)"><path fill="#ffde59" d="M 214.253906 167.199219 C 214.253906 168.894531 214.167969 170.585938 214.003906 172.273438 C 213.835938 173.960938 213.589844 175.632812 213.257812 177.296875 C 212.929688 178.957031 212.515625 180.601562 212.023438 182.222656 C 211.53125 183.84375 210.960938 185.4375 210.3125 187.003906 C 209.664062 188.570312 208.941406 190.101562 208.140625 191.59375 C 207.34375 193.089844 206.472656 194.542969 205.53125 195.949219 C 204.589844 197.359375 203.582031 198.71875 202.507812 200.03125 C 201.429688 201.339844 200.292969 202.59375 199.09375 203.792969 C 197.898438 204.992188 196.644531 206.128906 195.332031 207.203125 C 194.023438 208.277344 192.664062 209.285156 191.253906 210.230469 C 189.84375 211.171875 188.390625 212.039062 186.898438 212.839844 C 185.402344 213.636719 183.871094 214.363281 182.308594 215.011719 C 180.742188 215.660156 179.148438 216.230469 177.523438 216.722656 C 175.902344 217.214844 174.261719 217.625 172.597656 217.957031 C 170.9375 218.285156 169.261719 218.535156 167.574219 218.699219 C 165.886719 218.867188 164.199219 218.949219 162.503906 218.949219 C 160.808594 218.949219 159.117188 218.867188 157.429688 218.699219 C 155.742188 218.535156 154.070312 218.285156 152.40625 217.957031 C 150.746094 217.625 149.101562 217.214844 147.480469 216.722656 C 145.859375 216.230469 144.265625 215.660156 142.699219 215.011719 C 141.132812 214.363281 139.601562 213.636719 138.109375 212.839844 C 136.613281 212.039062 135.160156 211.171875 133.753906 210.230469 C 132.34375 209.285156 130.984375 208.277344 129.671875 207.203125 C 128.363281 206.128906 127.109375 204.992188 125.910156 203.792969 C 124.710938 202.59375 123.574219 201.339844 122.5 200.03125 C 121.425781 198.71875 120.414062 197.359375 119.472656 195.949219 C 118.53125 194.542969 117.664062 193.089844 116.863281 191.59375 C 116.0625 190.101562 115.339844 188.570312 114.691406 187.003906 C 114.042969 185.4375 113.472656 183.84375 112.980469 182.222656 C 112.488281 180.601562 112.078125 178.957031 111.746094 177.296875 C 111.417969 175.632812 111.167969 173.960938 111.003906 172.273438 C 110.835938 170.585938 110.753906 168.894531 110.753906 167.199219 C 110.753906 165.503906 110.835938 163.8125 111.003906 162.128906 C 111.167969 160.441406 111.417969 158.765625 111.746094 157.105469 C 112.078125 155.441406 112.488281 153.800781 112.980469 152.179688 C 113.472656 150.554688 114.042969 148.960938 114.691406 147.394531 C 115.339844 145.832031 116.0625 144.300781 116.863281 142.804688 C 117.664062 141.3125 118.53125 139.859375 119.472656 138.449219 C 120.414062 137.039062 121.425781 135.679688 122.5 134.371094 C 123.574219 133.058594 124.710938 131.804688 125.910156 130.605469 C 127.109375 129.410156 128.363281 128.273438 129.671875 127.195312 C 130.984375 126.121094 132.34375 125.113281 133.753906 124.171875 C 135.160156 123.230469 136.613281 122.359375 138.109375 121.5625 C 139.601562 120.761719 141.132812 120.039062 142.699219 119.390625 C 144.265625 118.742188 145.859375 118.171875 147.480469 117.679688 C 149.101562 117.1875 150.746094 116.773438 152.40625 116.445312 C 154.070312 116.113281 155.742188 115.867188 157.429688 115.699219 C 159.117188 115.53125 160.808594 115.449219 162.503906 115.449219 C 164.199219 115.449219 165.886719 115.53125 167.574219 115.699219 C 169.261719 115.867188 170.9375 116.113281 172.597656 116.445312 C 174.261719 116.773438 175.902344 117.1875 177.523438 117.679688 C 179.148438 118.171875 180.742188 118.742188 182.308594 119.390625 C 183.871094 120.039062 185.402344 120.761719 186.898438 121.5625 C 188.390625 122.359375 189.84375 123.230469 191.253906 124.171875 C 192.664062 125.113281 194.023438 126.121094 195.332031 127.195312 C 196.644531 128.273438 197.898438 129.410156 199.09375 130.605469 C 200.292969 131.804688 201.429688 133.058594 202.507812 134.371094 C 203.582031 135.679688 204.589844 137.039062 205.53125 138.449219 C 206.472656 139.859375 207.34375 141.3125 208.140625 142.804688 C 208.941406 144.300781 209.664062 145.832031 210.3125 147.394531 C 210.960938 148.960938 211.53125 150.554688 212.023438 152.179688 C 212.515625 153.800781 212.929688 155.441406 213.257812 157.105469 C 213.589844 158.765625 213.835938 160.441406 214.003906 162.128906 C 214.167969 163.8125 214.253906 165.503906 214.253906 167.199219 Z M 214.253906 167.199219 " fill-opacity="1" fill-rule="nonzero"/></g><g clip-path="url(#0c27773e96)"><path fill="#03989e" d="M 123.59375 194.859375 C 161.90625 194.859375 194.304688 153.296875 207.515625 157.085938 C 213.804688 158.863281 216.957031 156.480469 219.75 154.105469 C 223.601562 150.808594 226.75 147.515625 236.519531 155.246094 C 245.769531 162.566406 251.238281 153.546875 257.480469 144.535156 C 262.597656 137.144531 268.234375 129.757812 276.902344 131.359375 C 296.144531 134.921875 302.691406 172.929688 302.691406 172.929688 L 72.644531 172.929688 C 72.644531 172.929688 96.886719 194.859375 123.59375 194.859375 " fill-opacity="1" fill-rule="nonzero"/></g><g clip-path="url(#d32de3670e)"><path fill="#5ce1e6" d="M 80.6875 178.324219 C 98.722656 190.441406 122.734375 188.660156 138.757812 174.019531 C 139.160156 173.617188 139.621094 173.273438 140.023438 172.929688 L 72.644531 172.929688 L 80.6875 178.324219 M 214.003906 185.558594 C 229.628906 201.117188 253.925781 203.816406 272.535156 192.046875 L 302.691406 172.929688 L 201.082031 172.929688 C 202 173.730469 202.976562 174.59375 203.839844 175.453125 L 214.003906 185.558594 M 140.023438 172.929688 L 201.082031 172.929688 C 183.621094 158.058594 157.714844 157.941406 140.023438 172.929688 " fill-opacity="1" fill-rule="nonzero"/></g><g clip-path="url(#31048e966c)"><path fill="#00c4cc" d="M 153.085938 157.660156 C 156.621094 157.660156 160.277344 158.953125 164.03125 162.019531 L 164.203125 162.160156 C 155.539062 163.335938 147.121094 166.917969 140.023438 172.929688 L 130.316406 172.929688 C 137.191406 164.730469 144.824219 157.652344 153.085938 157.660156 M 72.644531 172.929688 C 72.644531 172.929688 89.488281 188.164062 110.5625 193.238281 C 107.21875 195.261719 103.972656 196.109375 100.871094 196.109375 C 84.695312 196.109375 72.644531 172.929688 72.644531 172.929688 " fill-opacity="1" fill-rule="nonzero"/></g><g clip-path="url(#6065cead08)"><path fill="#03989e" d="M 72.644531 172.929688 L 80.6875 178.324219 C 88.683594 183.695312 97.851562 186.335938 106.976562 186.335938 C 111.554688 186.335938 116.128906 185.667969 120.535156 184.351562 C 117.390625 187.78125 114.308594 190.773438 111.53125 192.621094 C 111.210938 192.835938 110.882812 193.042969 110.5625 193.238281 C 89.488281 188.164062 72.644531 172.929688 72.644531 172.929688 " fill-opacity="1" fill-rule="nonzero"/></g><path fill="#00c4cc" d="M 177.324219 172.929688 L 201.082031 172.929688 C 202 173.730469 202.976562 174.59375 203.839844 175.453125 L 214.003906 185.558594 C 216.3125 187.859375 218.8125 189.878906 221.453125 191.613281 C 221.425781 191.625 221.390625 191.636719 221.355469 191.644531 C 217.640625 192.851562 214.222656 193.402344 211.019531 193.402344 C 197.945312 193.402344 188.4375 184.242188 176.75 173.324219 C 176.9375 173.195312 177.132812 173.0625 177.324219 172.929688 " fill-opacity="1" fill-rule="nonzero"/><path fill="#03989e" d="M 176.324219 172.929688 L 177.324219 172.929688 C 177.132812 173.0625 176.9375 173.195312 176.75 173.324219 C 176.605469 173.195312 176.46875 173.0625 176.324219 172.929688 " fill-opacity="1" fill-rule="nonzero"/><g clip-path="url(#7d95c975b4)"><path fill="#00c4cc" d="M 283.707031 184.964844 C 275.828125 196.824219 271.347656 213.40625 259.039062 215.011719 C 258.351562 215.101562 257.699219 215.140625 257.070312 215.140625 C 249.503906 215.140625 246.191406 208.972656 242.78125 202.804688 C 242.042969 201.460938 241.300781 200.117188 240.503906 198.839844 C 242.777344 199.171875 245.070312 199.339844 247.367188 199.339844 C 256.050781 199.339844 264.785156 196.949219 272.535156 192.046875 L 283.707031 184.964844 " fill-opacity="1" fill-rule="nonzero"/></g><g clip-path="url(#b5e6c9a985)"><path fill="#5ce1e6" d="M 164.203125 162.160156 C 168.617188 165.789062 172.578125 169.46875 176.324219 172.929688 L 140.023438 172.929688 C 147.121094 166.917969 155.539062 163.335938 164.203125 162.160156 M 72.644531 172.929688 L 130.316406 172.929688 C 127.195312 176.664062 123.835938 180.75 120.535156 184.351562 C 116.128906 185.667969 111.554688 186.335938 106.976562 186.335938 C 97.851562 186.335938 88.683594 183.695312 80.6875 178.324219 L 72.644531 172.929688 M 176.324219 172.929688 L 201.082031 172.929688 L 176.324219 172.929688 M 201.082031 172.929688 L 302.691406 172.929688 C 293.84375 172.929688 288.21875 178.171875 283.707031 184.964844 L 272.535156 192.046875 C 264.785156 196.949219 256.050781 199.339844 247.367188 199.339844 C 245.070312 199.339844 242.777344 199.171875 240.503906 198.839844 C 237.652344 194.242188 234.167969 190.464844 227.96875 190.464844 C 226.074219 190.464844 223.917969 190.820312 221.453125 191.613281 C 218.8125 189.878906 216.3125 187.859375 214.003906 185.558594 L 203.839844 175.453125 C 202.976562 174.59375 202 173.730469 201.082031 172.929688 " fill-opacity="1" fill-rule="nonzero"/></g><g fill="#ffde59" fill-opacity="1"><g transform="translate(69.572172, 257.085965)"><g><path d="M 18.140625 -4.375 L 7.765625 -4.375 L 6.03125 0 L -0.171875 0 L 10.078125 -23.75 L 16.28125 -23.75 L 26.296875 0 L 19.84375 0 Z M 16.390625 -8.953125 L 12.984375 -17.734375 L 9.53125 -8.953125 Z M 16.390625 -8.953125 "/></g></g></g><g fill="#ffde59" fill-opacity="1"><g transform="translate(95.685974, 257.085965)"><g><path d="M 13.84375 -18.484375 C 16.414062 -18.484375 18.488281 -17.617188 20.0625 -15.890625 C 21.632812 -14.160156 22.421875 -11.882812 22.421875 -9.0625 C 22.421875 -6.28125 21.648438 -4.039062 20.109375 -2.34375 C 18.578125 -0.644531 16.53125 0.203125 13.96875 0.203125 C 11.570312 0.203125 9.707031 -0.675781 8.375 -2.4375 L 8.375 6.578125 L 2.515625 6.578125 L 2.515625 -18.28125 L 8.375 -18.28125 L 8.375 -15.875 C 9.726562 -17.613281 11.550781 -18.484375 13.84375 -18.484375 Z M 12.421875 -4.4375 C 13.640625 -4.4375 14.625 -4.882812 15.375 -5.78125 C 16.132812 -6.675781 16.515625 -7.820312 16.515625 -9.21875 C 16.515625 -10.625 16.132812 -11.765625 15.375 -12.640625 C 14.625 -13.523438 13.640625 -13.96875 12.421875 -13.96875 C 11.242188 -13.96875 10.273438 -13.523438 9.515625 -12.640625 C 8.753906 -11.765625 8.375 -10.628906 8.375 -9.234375 C 8.375 -7.804688 8.75 -6.648438 9.5 -5.765625 C 10.25 -4.878906 11.222656 -4.4375 12.421875 -4.4375 Z M 12.421875 -4.4375 "/></g></g></g><g fill="#ffde59" fill-opacity="1"><g transform="translate(118.917079, 257.085965)"><g><path d="M 10.546875 -18.5625 C 13.054688 -18.5625 15.003906 -17.976562 16.390625 -16.8125 C 17.785156 -15.644531 18.492188 -14.019531 18.515625 -11.9375 L 18.515625 0 L 12.78125 0 L 12.78125 -2.109375 C 11.582031 -0.523438 9.71875 0.265625 7.1875 0.265625 C 5.269531 0.265625 3.742188 -0.265625 2.609375 -1.328125 C 1.484375 -2.390625 0.921875 -3.769531 0.921875 -5.46875 C 0.921875 -7.207031 1.523438 -8.554688 2.734375 -9.515625 C 3.941406 -10.472656 5.675781 -10.960938 7.9375 -10.984375 L 12.75 -10.984375 L 12.75 -11.265625 C 12.75 -12.171875 12.445312 -12.875 11.84375 -13.375 C 11.25 -13.882812 10.363281 -14.140625 9.1875 -14.140625 C 7.539062 -14.140625 5.722656 -13.632812 3.734375 -12.625 L 2.0625 -16.484375 C 5.03125 -17.867188 7.859375 -18.5625 10.546875 -18.5625 Z M 8.984375 -3.703125 C 9.910156 -3.703125 10.722656 -3.929688 11.421875 -4.390625 C 12.128906 -4.859375 12.570312 -5.460938 12.75 -6.203125 L 12.75 -7.84375 L 9.0625 -7.84375 C 7.289062 -7.84375 6.40625 -7.1875 6.40625 -5.875 C 6.40625 -5.1875 6.628906 -4.648438 7.078125 -4.265625 C 7.535156 -3.890625 8.171875 -3.703125 8.984375 -3.703125 Z M 8.984375 -3.703125 "/></g></g></g><g fill="#ffde59" fill-opacity="1"><g transform="translate(139.265497, 257.085965)"><g><path d="M 10.3125 -18.484375 C 12.125 -18.484375 13.734375 -18.125 15.140625 -17.40625 C 16.554688 -16.695312 17.660156 -15.691406 18.453125 -14.390625 L 14.25 -11.84375 C 13.34375 -13.101562 12.109375 -13.734375 10.546875 -13.734375 C 9.421875 -13.734375 8.5 -13.304688 7.78125 -12.453125 C 7.070312 -11.609375 6.71875 -10.5 6.71875 -9.125 C 6.71875 -7.71875 7.066406 -6.59375 7.765625 -5.75 C 8.460938 -4.90625 9.390625 -4.484375 10.546875 -4.484375 C 12.265625 -4.484375 13.507812 -5.171875 14.28125 -6.546875 L 18.5625 -4.03125 C 17.8125 -2.675781 16.71875 -1.628906 15.28125 -0.890625 C 13.84375 -0.160156 12.164062 0.203125 10.25 0.203125 C 7.414062 0.203125 5.132812 -0.648438 3.40625 -2.359375 C 1.675781 -4.066406 0.8125 -6.3125 0.8125 -9.09375 C 0.8125 -11.894531 1.6875 -14.160156 3.4375 -15.890625 C 5.195312 -17.617188 7.488281 -18.484375 10.3125 -18.484375 Z M 10.3125 -18.484375 "/></g></g></g><g fill="#ffde59" fill-opacity="1"><g transform="translate(158.325184, 257.085965)"><g><path d="M 14.515625 -18.5625 C 16.523438 -18.5625 18.140625 -17.921875 19.359375 -16.640625 C 20.585938 -15.359375 21.203125 -13.65625 21.203125 -11.53125 L 21.203125 0 L 15.328125 0 L 15.328125 -9.90625 C 15.328125 -10.96875 15.039062 -11.804688 14.46875 -12.421875 C 13.894531 -13.046875 13.109375 -13.359375 12.109375 -13.359375 C 10.972656 -13.359375 10.066406 -12.953125 9.390625 -12.140625 C 8.710938 -11.328125 8.375 -10.285156 8.375 -9.015625 L 8.375 0 L 2.515625 0 L 2.515625 -25.171875 L 8.375 -25.171875 L 8.375 -15.265625 C 9.664062 -17.410156 11.710938 -18.507812 14.515625 -18.5625 Z M 14.515625 -18.5625 "/></g></g></g><g fill="#ffde59" fill-opacity="1"><g transform="translate(181.318892, 257.085965)"><g><path d="M 10.34375 -18.484375 C 13.507812 -18.484375 15.890625 -17.507812 17.484375 -15.5625 C 19.078125 -13.625 19.773438 -10.957031 19.578125 -7.5625 L 6.71875 -7.5625 C 7.007812 -6.476562 7.523438 -5.640625 8.265625 -5.046875 C 9.015625 -4.460938 9.9375 -4.171875 11.03125 -4.171875 C 12.695312 -4.171875 14.15625 -4.789062 15.40625 -6.03125 L 18.484375 -3.015625 C 16.515625 -0.867188 13.859375 0.203125 10.515625 0.203125 C 7.554688 0.203125 5.195312 -0.644531 3.4375 -2.34375 C 1.6875 -4.039062 0.8125 -6.289062 0.8125 -9.09375 C 0.8125 -11.914062 1.6875 -14.1875 3.4375 -15.90625 C 5.195312 -17.625 7.5 -18.484375 10.34375 -18.484375 Z M 6.609375 -10.71875 L 13.9375 -10.71875 C 13.9375 -11.820312 13.613281 -12.710938 12.96875 -13.390625 C 12.332031 -14.078125 11.476562 -14.421875 10.40625 -14.421875 C 9.414062 -14.421875 8.582031 -14.085938 7.90625 -13.421875 C 7.226562 -12.753906 6.796875 -11.851562 6.609375 -10.71875 Z M 6.609375 -10.71875 "/></g></g></g><g fill="#ffde59" fill-opacity="1"><g transform="translate(201.735138, 257.085965)"><g/></g></g><g fill="#ffde59" fill-opacity="1"><g transform="translate(209.603191, 257.085965)"><g><path d="M 11.5 -24.015625 C 15.050781 -24.015625 18.171875 -23.132812 20.859375 -21.375 L 18.59375 -16.65625 C 17.34375 -17.375 16.003906 -17.960938 14.578125 -18.421875 C 13.160156 -18.890625 11.960938 -19.125 10.984375 -19.125 C 9.242188 -19.125 8.375 -18.550781 8.375 -17.40625 C 8.375 -16.65625 8.800781 -16.050781 9.65625 -15.59375 C 10.519531 -15.144531 11.566406 -14.753906 12.796875 -14.421875 C 14.035156 -14.097656 15.269531 -13.703125 16.5 -13.234375 C 17.738281 -12.773438 18.785156 -12.023438 19.640625 -10.984375 C 20.503906 -9.953125 20.9375 -8.644531 20.9375 -7.0625 C 20.9375 -4.769531 20.039062 -2.984375 18.25 -1.703125 C 16.457031 -0.429688 14.1875 0.203125 11.4375 0.203125 C 9.46875 0.203125 7.519531 -0.132812 5.59375 -0.8125 C 3.675781 -1.488281 2.003906 -2.414062 0.578125 -3.59375 L 2.921875 -8.25 C 4.117188 -7.207031 5.53125 -6.351562 7.15625 -5.6875 C 8.78125 -5.019531 10.226562 -4.6875 11.5 -4.6875 C 12.46875 -4.6875 13.222656 -4.859375 13.765625 -5.203125 C 14.316406 -5.554688 14.59375 -6.070312 14.59375 -6.75 C 14.59375 -7.40625 14.28125 -7.953125 13.65625 -8.390625 C 13.03125 -8.835938 12.253906 -9.164062 11.328125 -9.375 C 10.398438 -9.59375 9.394531 -9.878906 8.3125 -10.234375 C 7.226562 -10.597656 6.222656 -10.992188 5.296875 -11.421875 C 4.367188 -11.859375 3.59375 -12.546875 2.96875 -13.484375 C 2.34375 -14.421875 2.03125 -15.546875 2.03125 -16.859375 C 2.03125 -19.023438 2.894531 -20.757812 4.625 -22.0625 C 6.351562 -23.363281 8.644531 -24.015625 11.5 -24.015625 Z M 11.5 -24.015625 "/></g></g></g><g fill="#ffde59" fill-opacity="1"><g transform="translate(231.443827, 257.085965)"><g><path d="M 20.15625 -18.28125 L 20.15625 0 L 14.28125 0 L 14.28125 -3.015625 C 13.039062 -0.847656 11.0625 0.234375 8.34375 0.234375 C 6.351562 0.234375 4.765625 -0.394531 3.578125 -1.65625 C 2.390625 -2.925781 1.796875 -4.625 1.796875 -6.75 L 1.796875 -18.28125 L 7.671875 -18.28125 L 7.671875 -8.40625 C 7.671875 -7.320312 7.945312 -6.46875 8.5 -5.84375 C 9.050781 -5.226562 9.789062 -4.921875 10.71875 -4.921875 C 11.820312 -4.941406 12.691406 -5.351562 13.328125 -6.15625 C 13.960938 -6.957031 14.28125 -7.992188 14.28125 -9.265625 L 14.28125 -18.28125 Z M 20.15625 -18.28125 "/></g></g></g><g fill="#ffde59" fill-opacity="1"><g transform="translate(253.928823, 257.085965)"><g><path d="M 14.3125 -18.5625 C 16.320312 -18.5625 17.9375 -17.921875 19.15625 -16.640625 C 20.382812 -15.359375 21 -13.65625 21 -11.53125 L 21 0 L 15.15625 0 L 15.15625 -9.90625 C 15.15625 -10.96875 14.867188 -11.804688 14.296875 -12.421875 C 13.722656 -13.046875 12.9375 -13.359375 11.9375 -13.359375 C 10.894531 -13.359375 10.039062 -13.019531 9.375 -12.34375 C 8.707031 -11.664062 8.316406 -10.773438 8.203125 -9.671875 L 8.203125 0 L 2.34375 0 L 2.34375 -18.28125 L 8.203125 -18.28125 L 8.203125 -15.296875 C 9.492188 -17.421875 11.53125 -18.507812 14.3125 -18.5625 Z M 14.3125 -18.5625 "/></g></g></g><g fill="#ffde59" fill-opacity="1"><g transform="translate(276.752975, 257.085965)"><g><path d="M 14.3125 -18.5625 C 16.320312 -18.5625 17.9375 -17.921875 19.15625 -16.640625 C 20.382812 -15.359375 21 -13.65625 21 -11.53125 L 21 0 L 15.15625 0 L 15.15625 -9.90625 C 15.15625 -10.96875 14.867188 -11.804688 14.296875 -12.421875 C 13.722656 -13.046875 12.9375 -13.359375 11.9375 -13.359375 C 10.894531 -13.359375 10.039062 -13.019531 9.375 -12.34375 C 8.707031 -11.664062 8.316406 -10.773438 8.203125 -9.671875 L 8.203125 0 L 2.34375 0 L 2.34375 -18.28125 L 8.203125 -18.28125 L 8.203125 -15.296875 C 9.492188 -17.421875 11.53125 -18.507812 14.3125 -18.5625 Z M 14.3125 -18.5625 "/></g></g></g><g fill="#ffde59" fill-opacity="1"><g transform="translate(299.577116, 257.085965)"><g><path d="M 19.90625 -18.28125 L 12.015625 1.90625 C 10.648438 5.207031 8.296875 6.859375 4.953125 6.859375 C 3.003906 6.859375 1.226562 6.234375 -0.375 4.984375 L 2.0625 0.984375 C 2.882812 1.640625 3.691406 1.96875 4.484375 1.96875 C 5.515625 1.96875 6.269531 1.484375 6.75 0.515625 L 7.1875 -0.40625 L -0.40625 -18.28125 L 5.625 -18.28125 L 10.109375 -6.140625 L 14.078125 -18.28125 Z M 19.90625 -18.28125 "/></g></g></g><g fill="#03989e" fill-opacity="1"><g transform="translate(140.98623, 278.133527)"><g><path d="M 1.140625 -7.5625 L 4.328125 -7.5625 C 5.128906 -7.5625 5.835938 -7.40625 6.453125 -7.09375 C 7.078125 -6.78125 7.554688 -6.332031 7.890625 -5.75 C 8.234375 -5.175781 8.40625 -4.519531 8.40625 -3.78125 C 8.40625 -3.039062 8.234375 -2.382812 7.890625 -1.8125 C 7.554688 -1.238281 7.078125 -0.789062 6.453125 -0.46875 C 5.835938 -0.15625 5.128906 0 4.328125 0 L 1.140625 0 Z M 4.265625 -0.9375 C 4.867188 -0.9375 5.40625 -1.054688 5.875 -1.296875 C 6.34375 -1.535156 6.703125 -1.867188 6.953125 -2.296875 C 7.203125 -2.722656 7.328125 -3.21875 7.328125 -3.78125 C 7.328125 -4.34375 7.203125 -4.835938 6.953125 -5.265625 C 6.703125 -5.703125 6.34375 -6.035156 5.875 -6.265625 C 5.40625 -6.503906 4.867188 -6.625 4.265625 -6.625 L 2.21875 -6.625 L 2.21875 -0.9375 Z M 4.265625 -0.9375 "/></g></g></g><g fill="#03989e" fill-opacity="1"><g transform="translate(149.91087, 278.133527)"><g><path d="M 6.15625 -2.828125 C 6.15625 -2.753906 6.148438 -2.648438 6.140625 -2.515625 L 1.484375 -2.515625 C 1.554688 -2.015625 1.78125 -1.609375 2.15625 -1.296875 C 2.53125 -0.992188 3 -0.84375 3.5625 -0.84375 C 4.25 -0.84375 4.800781 -1.070312 5.21875 -1.53125 L 5.796875 -0.859375 C 5.535156 -0.554688 5.210938 -0.328125 4.828125 -0.171875 C 4.441406 -0.015625 4.007812 0.0625 3.53125 0.0625 C 2.925781 0.0625 2.390625 -0.0625 1.921875 -0.3125 C 1.453125 -0.5625 1.085938 -0.90625 0.828125 -1.34375 C 0.578125 -1.789062 0.453125 -2.296875 0.453125 -2.859375 C 0.453125 -3.421875 0.578125 -3.921875 0.828125 -4.359375 C 1.078125 -4.804688 1.421875 -5.15625 1.859375 -5.40625 C 2.296875 -5.65625 2.785156 -5.78125 3.328125 -5.78125 C 3.878906 -5.78125 4.367188 -5.65625 4.796875 -5.40625 C 5.222656 -5.15625 5.554688 -4.804688 5.796875 -4.359375 C 6.035156 -3.921875 6.15625 -3.410156 6.15625 -2.828125 Z M 3.328125 -4.90625 C 2.828125 -4.90625 2.410156 -4.753906 2.078125 -4.453125 C 1.742188 -4.148438 1.546875 -3.753906 1.484375 -3.265625 L 5.171875 -3.265625 C 5.109375 -3.742188 4.910156 -4.132812 4.578125 -4.4375 C 4.242188 -4.75 3.828125 -4.90625 3.328125 -4.90625 Z M 3.328125 -4.90625 "/></g></g></g><g fill="#03989e" fill-opacity="1"><g transform="translate(156.523323, 278.133527)"><g><path d="M 2.625 0.0625 C 2.15625 0.0625 1.703125 0 1.265625 -0.125 C 0.835938 -0.25 0.503906 -0.410156 0.265625 -0.609375 L 0.6875 -1.421875 C 0.945312 -1.242188 1.253906 -1.097656 1.609375 -0.984375 C 1.972656 -0.878906 2.335938 -0.828125 2.703125 -0.828125 C 3.609375 -0.828125 4.0625 -1.085938 4.0625 -1.609375 C 4.0625 -1.785156 4 -1.921875 3.875 -2.015625 C 3.757812 -2.117188 3.609375 -2.191406 3.421875 -2.234375 C 3.234375 -2.285156 2.972656 -2.34375 2.640625 -2.40625 C 2.179688 -2.476562 1.804688 -2.5625 1.515625 -2.65625 C 1.222656 -2.75 0.96875 -2.90625 0.75 -3.125 C 0.539062 -3.34375 0.4375 -3.65625 0.4375 -4.0625 C 0.4375 -4.582031 0.648438 -5 1.078125 -5.3125 C 1.515625 -5.625 2.097656 -5.78125 2.828125 -5.78125 C 3.210938 -5.78125 3.59375 -5.734375 3.96875 -5.640625 C 4.351562 -5.546875 4.671875 -5.421875 4.921875 -5.265625 L 4.46875 -4.4375 C 4.007812 -4.738281 3.460938 -4.890625 2.828125 -4.890625 C 2.378906 -4.890625 2.039062 -4.816406 1.8125 -4.671875 C 1.582031 -4.535156 1.46875 -4.347656 1.46875 -4.109375 C 1.46875 -3.921875 1.53125 -3.769531 1.65625 -3.65625 C 1.789062 -3.550781 1.953125 -3.472656 2.140625 -3.421875 C 2.335938 -3.378906 2.609375 -3.320312 2.953125 -3.25 C 3.410156 -3.175781 3.78125 -3.09375 4.0625 -3 C 4.351562 -2.90625 4.597656 -2.75 4.796875 -2.53125 C 5.003906 -2.320312 5.109375 -2.019531 5.109375 -1.625 C 5.109375 -1.113281 4.882812 -0.703125 4.4375 -0.390625 C 4 -0.0859375 3.394531 0.0625 2.625 0.0625 Z M 2.625 0.0625 "/></g></g></g><g fill="#03989e" fill-opacity="1"><g transform="translate(161.936458, 278.133527)"><g><path d="M 0.984375 -5.734375 L 2.015625 -5.734375 L 2.015625 0 L 0.984375 0 Z M 1.5 -6.828125 C 1.300781 -6.828125 1.132812 -6.890625 1 -7.015625 C 0.863281 -7.148438 0.796875 -7.3125 0.796875 -7.5 C 0.796875 -7.6875 0.863281 -7.847656 1 -7.984375 C 1.132812 -8.117188 1.300781 -8.1875 1.5 -8.1875 C 1.707031 -8.1875 1.875 -8.125 2 -8 C 2.132812 -7.875 2.203125 -7.71875 2.203125 -7.53125 C 2.203125 -7.332031 2.132812 -7.164062 2 -7.03125 C 1.875 -6.894531 1.707031 -6.828125 1.5 -6.828125 Z M 1.5 -6.828125 "/></g></g></g><g fill="#03989e" fill-opacity="1"><g transform="translate(164.950958, 278.133527)"><g><path d="M 6.46875 -5.734375 L 6.46875 -0.78125 C 6.46875 0.21875 6.21875 0.957031 5.71875 1.4375 C 5.21875 1.914062 4.476562 2.15625 3.5 2.15625 C 2.957031 2.15625 2.441406 2.082031 1.953125 1.9375 C 1.460938 1.789062 1.0625 1.582031 0.75 1.3125 L 1.25 0.515625 C 1.519531 0.742188 1.847656 0.921875 2.234375 1.046875 C 2.628906 1.179688 3.035156 1.25 3.453125 1.25 C 4.128906 1.25 4.625 1.085938 4.9375 0.765625 C 5.257812 0.453125 5.421875 -0.0234375 5.421875 -0.671875 L 5.421875 -1.125 C 5.179688 -0.832031 4.878906 -0.609375 4.515625 -0.453125 C 4.160156 -0.304688 3.773438 -0.234375 3.359375 -0.234375 C 2.816406 -0.234375 2.320312 -0.347656 1.875 -0.578125 C 1.4375 -0.816406 1.085938 -1.144531 0.828125 -1.5625 C 0.578125 -1.988281 0.453125 -2.472656 0.453125 -3.015625 C 0.453125 -3.554688 0.578125 -4.035156 0.828125 -4.453125 C 1.085938 -4.878906 1.4375 -5.207031 1.875 -5.4375 C 2.320312 -5.664062 2.816406 -5.78125 3.359375 -5.78125 C 3.796875 -5.78125 4.195312 -5.703125 4.5625 -5.546875 C 4.9375 -5.390625 5.242188 -5.15625 5.484375 -4.84375 L 5.484375 -5.734375 Z M 3.484375 -1.140625 C 3.859375 -1.140625 4.191406 -1.21875 4.484375 -1.375 C 4.785156 -1.539062 5.019531 -1.765625 5.1875 -2.046875 C 5.363281 -2.328125 5.453125 -2.648438 5.453125 -3.015625 C 5.453125 -3.566406 5.265625 -4.015625 4.890625 -4.359375 C 4.523438 -4.703125 4.054688 -4.875 3.484375 -4.875 C 2.898438 -4.875 2.421875 -4.703125 2.046875 -4.359375 C 1.679688 -4.015625 1.5 -3.566406 1.5 -3.015625 C 1.5 -2.648438 1.582031 -2.328125 1.75 -2.046875 C 1.925781 -1.765625 2.160156 -1.539062 2.453125 -1.375 C 2.753906 -1.21875 3.097656 -1.140625 3.484375 -1.140625 Z M 3.484375 -1.140625 "/></g></g></g><g fill="#03989e" fill-opacity="1"><g transform="translate(172.406165, 278.133527)"><g><path d="M 4.046875 -5.78125 C 4.773438 -5.78125 5.351562 -5.566406 5.78125 -5.140625 C 6.207031 -4.722656 6.421875 -4.109375 6.421875 -3.296875 L 6.421875 0 L 5.390625 0 L 5.390625 -3.171875 C 5.390625 -3.734375 5.253906 -4.15625 4.984375 -4.4375 C 4.710938 -4.71875 4.332031 -4.859375 3.84375 -4.859375 C 3.28125 -4.859375 2.832031 -4.691406 2.5 -4.359375 C 2.175781 -4.035156 2.015625 -3.566406 2.015625 -2.953125 L 2.015625 0 L 0.984375 0 L 0.984375 -5.734375 L 1.984375 -5.734375 L 1.984375 -4.859375 C 2.191406 -5.160156 2.472656 -5.390625 2.828125 -5.546875 C 3.179688 -5.703125 3.585938 -5.78125 4.046875 -5.78125 Z M 4.046875 -5.78125 "/></g></g></g><g fill="#03989e" fill-opacity="1"><g transform="translate(179.764132, 278.133527)"><g><path d="M 6.15625 -2.828125 C 6.15625 -2.753906 6.148438 -2.648438 6.140625 -2.515625 L 1.484375 -2.515625 C 1.554688 -2.015625 1.78125 -1.609375 2.15625 -1.296875 C 2.53125 -0.992188 3 -0.84375 3.5625 -0.84375 C 4.25 -0.84375 4.800781 -1.070312 5.21875 -1.53125 L 5.796875 -0.859375 C 5.535156 -0.554688 5.210938 -0.328125 4.828125 -0.171875 C 4.441406 -0.015625 4.007812 0.0625 3.53125 0.0625 C 2.925781 0.0625 2.390625 -0.0625 1.921875 -0.3125 C 1.453125 -0.5625 1.085938 -0.90625 0.828125 -1.34375 C 0.578125 -1.789062 0.453125 -2.296875 0.453125 -2.859375 C 0.453125 -3.421875 0.578125 -3.921875 0.828125 -4.359375 C 1.078125 -4.804688 1.421875 -5.15625 1.859375 -5.40625 C 2.296875 -5.65625 2.785156 -5.78125 3.328125 -5.78125 C 3.878906 -5.78125 4.367188 -5.65625 4.796875 -5.40625 C 5.222656 -5.15625 5.554688 -4.804688 5.796875 -4.359375 C 6.035156 -3.921875 6.15625 -3.410156 6.15625 -2.828125 Z M 3.328125 -4.90625 C 2.828125 -4.90625 2.410156 -4.753906 2.078125 -4.453125 C 1.742188 -4.148438 1.546875 -3.753906 1.484375 -3.265625 L 5.171875 -3.265625 C 5.109375 -3.742188 4.910156 -4.132812 4.578125 -4.4375 C 4.242188 -4.75 3.828125 -4.90625 3.328125 -4.90625 Z M 3.328125 -4.90625 "/></g></g></g><g fill="#03989e" fill-opacity="1"><g transform="translate(186.376585, 278.133527)"><g><path d="M 6.390625 -8.015625 L 6.390625 0 L 5.390625 0 L 5.390625 -0.90625 C 5.160156 -0.59375 4.867188 -0.351562 4.515625 -0.1875 C 4.160156 -0.0195312 3.773438 0.0625 3.359375 0.0625 C 2.796875 0.0625 2.296875 -0.0546875 1.859375 -0.296875 C 1.421875 -0.546875 1.078125 -0.890625 0.828125 -1.328125 C 0.578125 -1.773438 0.453125 -2.285156 0.453125 -2.859375 C 0.453125 -3.441406 0.578125 -3.953125 0.828125 -4.390625 C 1.078125 -4.828125 1.421875 -5.164062 1.859375 -5.40625 C 2.296875 -5.65625 2.796875 -5.78125 3.359375 -5.78125 C 3.765625 -5.78125 4.140625 -5.703125 4.484375 -5.546875 C 4.828125 -5.390625 5.117188 -5.160156 5.359375 -4.859375 L 5.359375 -8.015625 Z M 3.4375 -0.84375 C 3.800781 -0.84375 4.128906 -0.925781 4.421875 -1.09375 C 4.710938 -1.269531 4.941406 -1.507812 5.109375 -1.8125 C 5.273438 -2.113281 5.359375 -2.460938 5.359375 -2.859375 C 5.359375 -3.253906 5.273438 -3.601562 5.109375 -3.90625 C 4.941406 -4.21875 4.710938 -4.457031 4.421875 -4.625 C 4.128906 -4.789062 3.800781 -4.875 3.4375 -4.875 C 3.070312 -4.875 2.742188 -4.789062 2.453125 -4.625 C 2.160156 -4.457031 1.925781 -4.21875 1.75 -3.90625 C 1.582031 -3.601562 1.5 -3.253906 1.5 -2.859375 C 1.5 -2.460938 1.582031 -2.113281 1.75 -1.8125 C 1.925781 -1.507812 2.160156 -1.269531 2.453125 -1.09375 C 2.742188 -0.925781 3.070312 -0.84375 3.4375 -0.84375 Z M 3.4375 -0.84375 "/></g></g></g><g fill="#03989e" fill-opacity="1"><g transform="translate(193.745355, 278.133527)"><g/></g></g><g fill="#03989e" fill-opacity="1"><g transform="translate(196.651811, 278.133527)"><g><path d="M 3.078125 -7.234375 C 2.460938 -7.234375 2.15625 -6.898438 2.15625 -6.234375 L 2.15625 -5.734375 L 3.8125 -5.734375 L 3.8125 -4.875 L 2.171875 -4.875 L 2.171875 0 L 1.140625 0 L 1.140625 -4.875 L 0.15625 -4.875 L 0.15625 -5.734375 L 1.140625 -5.734375 L 1.140625 -6.234375 C 1.140625 -6.804688 1.300781 -7.257812 1.625 -7.59375 C 1.957031 -7.925781 2.425781 -8.09375 3.03125 -8.09375 C 3.257812 -8.09375 3.472656 -8.0625 3.671875 -8 C 3.878906 -7.945312 4.050781 -7.863281 4.1875 -7.75 L 3.875 -6.96875 C 3.644531 -7.144531 3.378906 -7.234375 3.078125 -7.234375 Z M 3.078125 -7.234375 "/></g></g></g><g fill="#03989e" fill-opacity="1"><g transform="translate(200.465852, 278.133527)"><g><path d="M 3.4375 0.0625 C 2.863281 0.0625 2.347656 -0.0625 1.890625 -0.3125 C 1.441406 -0.5625 1.085938 -0.90625 0.828125 -1.34375 C 0.578125 -1.789062 0.453125 -2.296875 0.453125 -2.859375 C 0.453125 -3.421875 0.578125 -3.921875 0.828125 -4.359375 C 1.085938 -4.804688 1.441406 -5.15625 1.890625 -5.40625 C 2.347656 -5.65625 2.863281 -5.78125 3.4375 -5.78125 C 4.007812 -5.78125 4.519531 -5.65625 4.96875 -5.40625 C 5.414062 -5.15625 5.765625 -4.804688 6.015625 -4.359375 C 6.273438 -3.921875 6.40625 -3.421875 6.40625 -2.859375 C 6.40625 -2.296875 6.273438 -1.789062 6.015625 -1.34375 C 5.765625 -0.90625 5.414062 -0.5625 4.96875 -0.3125 C 4.519531 -0.0625 4.007812 0.0625 3.4375 0.0625 Z M 3.4375 -0.84375 C 3.800781 -0.84375 4.128906 -0.925781 4.421875 -1.09375 C 4.710938 -1.269531 4.941406 -1.507812 5.109375 -1.8125 C 5.273438 -2.113281 5.359375 -2.460938 5.359375 -2.859375 C 5.359375 -3.253906 5.273438 -3.601562 5.109375 -3.90625 C 4.941406 -4.21875 4.710938 -4.457031 4.421875 -4.625 C 4.128906 -4.789062 3.800781 -4.875 3.4375 -4.875 C 3.070312 -4.875 2.742188 -4.789062 2.453125 -4.625 C 2.160156 -4.457031 1.925781 -4.21875 1.75 -3.90625 C 1.582031 -3.601562 1.5 -3.253906 1.5 -2.859375 C 1.5 -2.460938 1.582031 -2.113281 1.75 -1.8125 C 1.925781 -1.507812 2.160156 -1.269531 2.453125 -1.09375 C 2.742188 -0.925781 3.070312 -0.84375 3.4375 -0.84375 Z M 3.4375 -0.84375 "/></g></g></g><g fill="#03989e" fill-opacity="1"><g transform="translate(207.326802, 278.133527)"><g><path d="M 1.984375 -4.765625 C 2.160156 -5.097656 2.425781 -5.347656 2.78125 -5.515625 C 3.132812 -5.691406 3.5625 -5.78125 4.0625 -5.78125 L 4.0625 -4.78125 C 4.007812 -4.789062 3.929688 -4.796875 3.828125 -4.796875 C 3.265625 -4.796875 2.820312 -4.625 2.5 -4.28125 C 2.175781 -3.945312 2.015625 -3.472656 2.015625 -2.859375 L 2.015625 0 L 0.984375 0 L 0.984375 -5.734375 L 1.984375 -5.734375 Z M 1.984375 -4.765625 "/></g></g></g><g fill="#03989e" fill-opacity="1"><g transform="translate(211.756706, 278.133527)"><g/></g></g><g fill="#03989e" fill-opacity="1"><g transform="translate(214.663162, 278.133527)"><g><path d="M 3.484375 0.0625 C 2.898438 0.0625 2.378906 -0.0625 1.921875 -0.3125 C 1.460938 -0.5625 1.101562 -0.90625 0.84375 -1.34375 C 0.582031 -1.789062 0.453125 -2.296875 0.453125 -2.859375 C 0.453125 -3.421875 0.582031 -3.921875 0.84375 -4.359375 C 1.101562 -4.804688 1.460938 -5.15625 1.921875 -5.40625 C 2.378906 -5.65625 2.898438 -5.78125 3.484375 -5.78125 C 4.003906 -5.78125 4.46875 -5.675781 4.875 -5.46875 C 5.28125 -5.257812 5.59375 -4.957031 5.8125 -4.5625 L 5.03125 -4.0625 C 4.84375 -4.332031 4.613281 -4.535156 4.34375 -4.671875 C 4.082031 -4.804688 3.789062 -4.875 3.46875 -4.875 C 3.09375 -4.875 2.753906 -4.789062 2.453125 -4.625 C 2.160156 -4.457031 1.925781 -4.21875 1.75 -3.90625 C 1.582031 -3.601562 1.5 -3.253906 1.5 -2.859375 C 1.5 -2.460938 1.582031 -2.109375 1.75 -1.796875 C 1.925781 -1.492188 2.160156 -1.257812 2.453125 -1.09375 C 2.753906 -0.925781 3.09375 -0.84375 3.46875 -0.84375 C 3.789062 -0.84375 4.082031 -0.910156 4.34375 -1.046875 C 4.613281 -1.179688 4.84375 -1.390625 5.03125 -1.671875 L 5.8125 -1.171875 C 5.59375 -0.773438 5.28125 -0.46875 4.875 -0.25 C 4.46875 -0.0390625 4.003906 0.0625 3.484375 0.0625 Z M 3.484375 0.0625 "/></g></g></g><g fill="#03989e" fill-opacity="1"><g transform="translate(220.832615, 278.133527)"><g><path d="M 0.984375 -8.015625 L 2.015625 -8.015625 L 2.015625 0 L 0.984375 0 Z M 0.984375 -8.015625 "/></g></g></g><g fill="#03989e" fill-opacity="1"><g transform="translate(223.847114, 278.133527)"><g><path d="M 3.4375 0.0625 C 2.863281 0.0625 2.347656 -0.0625 1.890625 -0.3125 C 1.441406 -0.5625 1.085938 -0.90625 0.828125 -1.34375 C 0.578125 -1.789062 0.453125 -2.296875 0.453125 -2.859375 C 0.453125 -3.421875 0.578125 -3.921875 0.828125 -4.359375 C 1.085938 -4.804688 1.441406 -5.15625 1.890625 -5.40625 C 2.347656 -5.65625 2.863281 -5.78125 3.4375 -5.78125 C 4.007812 -5.78125 4.519531 -5.65625 4.96875 -5.40625 C 5.414062 -5.15625 5.765625 -4.804688 6.015625 -4.359375 C 6.273438 -3.921875 6.40625 -3.421875 6.40625 -2.859375 C 6.40625 -2.296875 6.273438 -1.789062 6.015625 -1.34375 C 5.765625 -0.90625 5.414062 -0.5625 4.96875 -0.3125 C 4.519531 -0.0625 4.007812 0.0625 3.4375 0.0625 Z M 3.4375 -0.84375 C 3.800781 -0.84375 4.128906 -0.925781 4.421875 -1.09375 C 4.710938 -1.269531 4.941406 -1.507812 5.109375 -1.8125 C 5.273438 -2.113281 5.359375 -2.460938 5.359375 -2.859375 C 5.359375 -3.253906 5.273438 -3.601562 5.109375 -3.90625 C 4.941406 -4.21875 4.710938 -4.457031 4.421875 -4.625 C 4.128906 -4.789062 3.800781 -4.875 3.4375 -4.875 C 3.070312 -4.875 2.742188 -4.789062 2.453125 -4.625 C 2.160156 -4.457031 1.925781 -4.21875 1.75 -3.90625 C 1.582031 -3.601562 1.5 -3.253906 1.5 -2.859375 C 1.5 -2.460938 1.582031 -2.113281 1.75 -1.8125 C 1.925781 -1.507812 2.160156 -1.269531 2.453125 -1.09375 C 2.742188 -0.925781 3.070312 -0.84375 3.4375 -0.84375 Z M 3.4375 -0.84375 "/></g></g></g><g fill="#03989e" fill-opacity="1"><g transform="translate(230.708064, 278.133527)"><g><path d="M 6.328125 -5.734375 L 6.328125 0 L 5.34375 0 L 5.34375 -0.859375 C 5.132812 -0.566406 4.859375 -0.335938 4.515625 -0.171875 C 4.171875 -0.015625 3.796875 0.0625 3.390625 0.0625 C 2.628906 0.0625 2.03125 -0.144531 1.59375 -0.5625 C 1.15625 -0.988281 0.9375 -1.613281 0.9375 -2.4375 L 0.9375 -5.734375 L 1.96875 -5.734375 L 1.96875 -2.546875 C 1.96875 -1.992188 2.097656 -1.570312 2.359375 -1.28125 C 2.628906 -1 3.015625 -0.859375 3.515625 -0.859375 C 4.054688 -0.859375 4.484375 -1.023438 4.796875 -1.359375 C 5.117188 -1.691406 5.28125 -2.160156 5.28125 -2.765625 L 5.28125 -5.734375 Z M 6.328125 -5.734375 "/></g></g></g><g fill="#03989e" fill-opacity="1"><g transform="translate(238.022818, 278.133527)"><g><path d="M 6.390625 -8.015625 L 6.390625 0 L 5.390625 0 L 5.390625 -0.90625 C 5.160156 -0.59375 4.867188 -0.351562 4.515625 -0.1875 C 4.160156 -0.0195312 3.773438 0.0625 3.359375 0.0625 C 2.796875 0.0625 2.296875 -0.0546875 1.859375 -0.296875 C 1.421875 -0.546875 1.078125 -0.890625 0.828125 -1.328125 C 0.578125 -1.773438 0.453125 -2.285156 0.453125 -2.859375 C 0.453125 -3.441406 0.578125 -3.953125 0.828125 -4.390625 C 1.078125 -4.828125 1.421875 -5.164062 1.859375 -5.40625 C 2.296875 -5.65625 2.796875 -5.78125 3.359375 -5.78125 C 3.765625 -5.78125 4.140625 -5.703125 4.484375 -5.546875 C 4.828125 -5.390625 5.117188 -5.160156 5.359375 -4.859375 L 5.359375 -8.015625 Z M 3.4375 -0.84375 C 3.800781 -0.84375 4.128906 -0.925781 4.421875 -1.09375 C 4.710938 -1.269531 4.941406 -1.507812 5.109375 -1.8125 C 5.273438 -2.113281 5.359375 -2.460938 5.359375 -2.859375 C 5.359375 -3.253906 5.273438 -3.601562 5.109375 -3.90625 C 4.941406 -4.21875 4.710938 -4.457031 4.421875 -4.625 C 4.128906 -4.789062 3.800781 -4.875 3.4375 -4.875 C 3.070312 -4.875 2.742188 -4.789062 2.453125 -4.625 C 2.160156 -4.457031 1.925781 -4.21875 1.75 -3.90625 C 1.582031 -3.601562 1.5 -3.253906 1.5 -2.859375 C 1.5 -2.460938 1.582031 -2.113281 1.75 -1.8125 C 1.925781 -1.507812 2.160156 -1.269531 2.453125 -1.09375 C 2.742188 -0.925781 3.070312 -0.84375 3.4375 -0.84375 Z M 3.4375 -0.84375 "/></g></g></g><g fill="#03989e" fill-opacity="1"><g transform="translate(245.391588, 278.133527)"><g><path d="M 1.234375 0.0625 C 1.035156 0.0625 0.863281 -0.00390625 0.71875 -0.140625 C 0.570312 -0.285156 0.5 -0.46875 0.5 -0.6875 C 0.5 -0.894531 0.570312 -1.066406 0.71875 -1.203125 C 0.863281 -1.347656 1.035156 -1.421875 1.234375 -1.421875 C 1.429688 -1.421875 1.597656 -1.347656 1.734375 -1.203125 C 1.878906 -1.066406 1.953125 -0.894531 1.953125 -0.6875 C 1.953125 -0.46875 1.878906 -0.285156 1.734375 -0.140625 C 1.597656 -0.00390625 1.429688 0.0625 1.234375 0.0625 Z M 1.234375 0.0625 "/></g></g></g></svg>