<?xml version="1.0" encoding="UTF-8" standalone="no"?>
<svg
   width="81.155426mm"
   zoomAndPan="magnify"
   viewBox="0 0 230.04688 108.00712"
   height="38.102512mm"
   preserveAspectRatio="xMidYMid meet"
   version="1.0"
   id="svg307"
   sodipodi:docname="apache-sunny-transparent-icon.svg"
   inkscape:version="1.1.2 (0a00cf5339, 2022-02-04)"
   xmlns:inkscape="http://www.inkscape.org/namespaces/inkscape"
   xmlns:sodipodi="http://sodipodi.sourceforge.net/DTD/sodipodi-0.dtd"
   xmlns="http://www.w3.org/2000/svg"
   xmlns:svg="http://www.w3.org/2000/svg">
  <sodipodi:namedview
     id="namedview309"
     pagecolor="#ffffff"
     bordercolor="#666666"
     borderopacity="1.0"
     inkscape:pageshadow="2"
     inkscape:pageopacity="0.0"
     inkscape:pagecheckerboard="0"
     showgrid="false"
     units="mm"
     inkscape:zoom="1.8592668"
     inkscape:cx="143.87392"
     inkscape:cy="79.332346"
     inkscape:window-width="1920"
     inkscape:window-height="1016"
     inkscape:window-x="0"
     inkscape:window-y="27"
     inkscape:window-maximized="1"
     inkscape:current-layer="layer2"
     fit-margin-top="0"
     fit-margin-left="0"
     fit-margin-right="0"
     fit-margin-bottom="0"
     inkscape:document-units="mm" />
  <defs
     id="defs25">
    <g
       id="g2" />
    <clipPath
       id="b1c29fe07b">
      <path
         d="m 110.75391,115.44922 h 103.5 v 57.75 h -103.5 z m 0,0"
         clip-rule="nonzero"
         id="path4" />
    </clipPath>
    <clipPath
       id="7758e372a8">
      <path
         d="M 72.644531,131.14062 H 302.69141 V 195 H 72.644531 Z m 0,0"
         clip-rule="nonzero"
         id="path7" />
    </clipPath>
    <clipPath
       id="cae572990d">
      <path
         d="M 72.644531,161.17187 H 302.69141 v 38.46875 H 72.644531 Z m 0,0"
         clip-rule="nonzero"
         id="path10" />
    </clipPath>
    <clipPath
       id="8e04bb5a0c">
      <path
         d="m 72.644531,157.15234 h 91.617189 v 39.04297 H 72.644531 Z m 0,0"
         clip-rule="nonzero"
         id="path13" />
    </clipPath>
    <clipPath
       id="e9cec920d8">
      <path
         d="m 72.644531,172.65625 h 47.964849 v 20.66797 H 72.644531 Z m 0,0"
         clip-rule="nonzero"
         id="path16" />
    </clipPath>
    <clipPath
       id="a4c37e9977">
      <path
         d="m 240,184 h 44 v 31.14062 h -44 z m 0,0"
         clip-rule="nonzero"
         id="path19" />
    </clipPath>
    <clipPath
       id="d55ce1e200">
      <path
         d="M 72.644531,162 H 302.69141 v 37.64062 H 72.644531 Z m 0,0"
         clip-rule="nonzero"
         id="path22" />
    </clipPath>
    <linearGradient
       id="SVGID_10_"
       gradientUnits="userSpaceOnUse"
       x1="-6953.4072"
       y1="1134.7161"
       x2="-6011.9995"
       y2="1134.7161"
       gradientTransform="matrix(0.00500809,-0.01074026,0.01074026,0.00500809,176.22287,151.7127)">
      <stop
         offset="0.3233"
         style="stop-color:#9E2064"
         id="stop127" />
      <stop
         offset="0.6302"
         style="stop-color:#C92037"
         id="stop129" />
      <stop
         offset="0.7514"
         style="stop-color:#CD2335"
         id="stop131" />
      <stop
         offset="1"
         style="stop-color:#E97826"
         id="stop133" />
    </linearGradient>
    <linearGradient
       id="SVGID_9_"
       gradientUnits="userSpaceOnUse"
       x1="-9346.126"
       y1="1137.7247"
       x2="-5086.9941"
       y2="1137.7247"
       gradientTransform="matrix(0.00500809,-0.01074026,0.01074026,0.00500809,176.22287,151.7127)">
      <stop
         offset="0.3233"
         style="stop-color:#9E2064"
         id="stop112" />
      <stop
         offset="0.6302"
         style="stop-color:#C92037"
         id="stop114" />
      <stop
         offset="0.7514"
         style="stop-color:#CD2335"
         id="stop116" />
      <stop
         offset="1"
         style="stop-color:#E97826"
         id="stop118" />
    </linearGradient>
    <linearGradient
       id="SVGID_8_"
       gradientUnits="userSpaceOnUse"
       x1="-9346.126"
       y1="1152.7261"
       x2="-5086.9941"
       y2="1152.7261"
       gradientTransform="matrix(0.00500809,-0.01074026,0.01074026,0.00500809,176.22287,151.7127)">
      <stop
         offset="0.3233"
         style="stop-color:#9E2064"
         id="stop97" />
      <stop
         offset="0.6302"
         style="stop-color:#C92037"
         id="stop99" />
      <stop
         offset="0.7514"
         style="stop-color:#CD2335"
         id="stop101" />
      <stop
         offset="1"
         style="stop-color:#E97826"
         id="stop103" />
    </linearGradient>
    <linearGradient
       id="SVGID_7_"
       gradientUnits="userSpaceOnUse"
       x1="-9610.334"
       y1="999.73297"
       x2="-5351.2017"
       y2="999.73297"
       gradientTransform="matrix(0.00500809,-0.01074026,0.01074026,0.00500809,176.22287,151.7127)">
      <stop
         offset="0.3233"
         style="stop-color:#9E2064"
         id="stop82" />
      <stop
         offset="0.6302"
         style="stop-color:#C92037"
         id="stop84" />
      <stop
         offset="0.7514"
         style="stop-color:#CD2335"
         id="stop86" />
      <stop
         offset="1"
         style="stop-color:#E97826"
         id="stop88" />
    </linearGradient>
    <linearGradient
       id="SVGID_6_"
       gradientUnits="userSpaceOnUse"
       x1="-9346.126"
       y1="1021.6218"
       x2="-5086.9941"
       y2="1021.6218"
       gradientTransform="matrix(0.00500809,-0.01074026,0.01074026,0.00500809,176.22287,151.7127)">
      <stop
         offset="0.3233"
         style="stop-color:#9E2064"
         id="stop71" />
      <stop
         offset="0.6302"
         style="stop-color:#C92037"
         id="stop73" />
      <stop
         offset="0.7514"
         style="stop-color:#CD2335"
         id="stop75" />
      <stop
         offset="1"
         style="stop-color:#E97826"
         id="stop77" />
    </linearGradient>
    <linearGradient
       id="SVGID_5_"
       gradientUnits="userSpaceOnUse"
       x1="-9035.5029"
       y1="638.4408"
       x2="-6797.2012"
       y2="638.4408"
       gradientTransform="matrix(0.00500809,-0.01074026,0.01074026,0.00500809,176.22287,151.7127)">
      <stop
         offset="0"
         style="stop-color:#282662"
         id="stop60" />
      <stop
         offset="9.548390e-02"
         style="stop-color:#662E8D"
         id="stop62" />
      <stop
         offset="0.7882"
         style="stop-color:#9F2064"
         id="stop64" />
      <stop
         offset="0.9487"
         style="stop-color:#CD2032"
         id="stop66" />
    </linearGradient>
    <linearGradient
       id="SVGID_4_"
       gradientUnits="userSpaceOnUse"
       x1="-9346.126"
       y1="580.81702"
       x2="-5086.9941"
       y2="580.81702"
       gradientTransform="matrix(0.00500809,-0.01074026,0.01074026,0.00500809,176.22287,151.7127)">
      <stop
         offset="0.3233"
         style="stop-color:#9E2064"
         id="stop49" />
      <stop
         offset="0.6302"
         style="stop-color:#C92037"
         id="stop51" />
      <stop
         offset="0.7514"
         style="stop-color:#CD2335"
         id="stop53" />
      <stop
         offset="1"
         style="stop-color:#E97826"
         id="stop55" />
    </linearGradient>
    <linearGradient
       id="SVGID_3_"
       gradientUnits="userSpaceOnUse"
       x1="-9071.207"
       y1="1047.6898"
       x2="-6533.1782"
       y2="1047.6898"
       gradientTransform="matrix(0.00500809,-0.01074026,0.01074026,0.00500809,176.22287,151.7127)">
      <stop
         offset="0"
         style="stop-color:#282662"
         id="stop38" />
      <stop
         offset="9.548390e-02"
         style="stop-color:#662E8D"
         id="stop40" />
      <stop
         offset="0.7882"
         style="stop-color:#9F2064"
         id="stop42" />
      <stop
         offset="0.9487"
         style="stop-color:#CD2032"
         id="stop44" />
    </linearGradient>
    <linearGradient
       id="SVGID_2_"
       gradientUnits="userSpaceOnUse"
       x1="-9585.3418"
       y1="620.50482"
       x2="-5326.209"
       y2="620.50482"
       gradientTransform="matrix(0.00500809,-0.01074026,0.01074026,0.00500809,176.22287,151.7127)">
      <stop
         offset="0.3233"
         style="stop-color:#9E2064"
         id="stop27" />
      <stop
         offset="0.6302"
         style="stop-color:#C92037"
         id="stop29" />
      <stop
         offset="0.7514"
         style="stop-color:#CD2335"
         id="stop31" />
      <stop
         offset="1"
         style="stop-color:#E97826"
         id="stop33" />
    </linearGradient>
    <linearGradient
       id="SVGID_1_"
       gradientUnits="userSpaceOnUse"
       x1="-5167.0962"
       y1="697.55487"
       x2="-4570.1162"
       y2="1395.619"
       gradientTransform="matrix(0.00500809,-0.01074026,0.01074026,0.00500809,176.22287,151.7127)">
      <stop
         offset="0"
         style="stop-color:#F69923"
         id="stop2" />
      <stop
         offset="0.3123"
         style="stop-color:#F79A23"
         id="stop4" />
      <stop
         offset="0.8383"
         style="stop-color:#E97826"
         id="stop6" />
    </linearGradient>
  </defs>
  <g
     clip-path="url(#b1c29fe07b)"
     id="g35"
     transform="translate(-72.644531,-107.1335)"
     inkscape:export-filename="/home/fpa/planets/tatooine/openobject/sunny-website/static/img/apache-sunny-favicon.png.png"
     inkscape:export-xdpi="96"
     inkscape:export-ydpi="96">
    <path
       fill="#ffde59"
       d="m 214.25391,167.19922 c 0,1.69531 -0.0859,3.38672 -0.25,5.07422 -0.16797,1.6875 -0.41407,3.35937 -0.7461,5.02343 -0.32812,1.66016 -0.74219,3.30469 -1.23437,4.92579 -0.49219,1.62109 -1.0625,3.21484 -1.71094,4.78125 -0.64844,1.5664 -1.37109,3.09765 -2.17188,4.58984 -0.79687,1.49609 -1.66796,2.94922 -2.60937,4.35547 -0.94141,1.41015 -1.94922,2.76953 -3.02344,4.08203 -1.07812,1.30859 -2.21484,2.5625 -3.41406,3.76172 -1.19531,1.19922 -2.44922,2.33594 -3.76172,3.41015 -1.30859,1.07422 -2.66797,2.08204 -4.07812,3.02735 -1.41016,0.9414 -2.86329,1.80859 -4.35547,2.60937 -1.4961,0.79688 -3.02735,1.52344 -4.58985,2.17188 -1.5664,0.64844 -3.16015,1.21875 -4.78515,1.71094 -1.6211,0.49218 -3.26172,0.90234 -4.92578,1.23437 -1.66016,0.32813 -3.33594,0.57813 -5.02344,0.74219 -1.6875,0.16797 -3.375,0.25 -5.07031,0.25 -1.69532,0 -3.38672,-0.082 -5.07422,-0.25 -1.6875,-0.16406 -3.35938,-0.41406 -5.02344,-0.74219 -1.66016,-0.33203 -3.30469,-0.74219 -4.92578,-1.23437 -1.6211,-0.49219 -3.21485,-1.0625 -4.78125,-1.71094 -1.56641,-0.64844 -3.09766,-1.375 -4.58985,-2.17188 -1.49609,-0.80078 -2.94921,-1.66797 -4.35546,-2.60937 -1.41016,-0.94531 -2.76954,-1.95313 -4.08204,-3.02735 -1.30859,-1.07421 -2.56249,-2.21093 -3.76171,-3.41015 -1.19922,-1.19922 -2.33594,-2.45313 -3.41016,-3.76172 -1.07422,-1.3125 -2.08594,-2.67188 -3.02734,-4.08203 -0.94141,-1.40625 -1.8086,-2.85938 -2.60938,-4.35547 -0.80078,-1.49219 -1.52344,-3.02344 -2.17187,-4.58984 -0.64844,-1.56641 -1.21875,-3.16016 -1.71094,-4.78125 -0.49219,-1.6211 -0.90234,-3.26563 -1.23438,-4.92579 -0.32812,-1.66406 -0.57812,-3.33593 -0.74218,-5.02343 -0.16797,-1.6875 -0.25,-3.37891 -0.25,-5.07422 0,-1.69531 0.082,-3.38672 0.25,-5.07031 0.16406,-1.6875 0.41406,-3.36329 0.74218,-5.02344 0.33204,-1.66406 0.74219,-3.30469 1.23438,-4.92578 0.49219,-1.625 1.0625,-3.21875 1.71094,-4.78516 0.64843,-1.5625 1.37109,-3.09375 2.17187,-4.58984 0.80078,-1.49219 1.66797,-2.94532 2.60938,-4.35547 0.9414,-1.41016 1.95312,-2.76953 3.02734,-4.07813 1.07422,-1.3125 2.21094,-2.5664 3.41016,-3.76562 1.19922,-1.19531 2.45312,-2.33203 3.76171,-3.41016 1.3125,-1.07422 2.67188,-2.08203 4.08204,-3.02343 1.40625,-0.94141 2.85937,-1.8125 4.35546,-2.60938 1.49219,-0.80078 3.02344,-1.52344 4.58985,-2.17187 1.5664,-0.64844 3.16015,-1.21875 4.78125,-1.71094 1.62109,-0.49219 3.26562,-0.90625 4.92578,-1.23438 1.66406,-0.33203 3.33594,-0.57812 5.02344,-0.74609 1.6875,-0.16797 3.3789,-0.25 5.07422,-0.25 1.69531,0 3.38281,0.082 5.07031,0.25 1.6875,0.16797 3.36328,0.41406 5.02344,0.74609 1.66406,0.32813 3.30468,0.74219 4.92578,1.23438 1.625,0.49219 3.21875,1.0625 4.78515,1.71094 1.5625,0.64843 3.09375,1.37109 4.58985,2.17187 1.49218,0.79688 2.94531,1.66797 4.35547,2.60938 1.41015,0.9414 2.76953,1.94921 4.07812,3.02343 1.3125,1.07813 2.56641,2.21485 3.76172,3.41016 1.19922,1.19922 2.33594,2.45312 3.41406,3.76562 1.07422,1.3086 2.08203,2.66797 3.02344,4.07813 0.94141,1.41015 1.8125,2.86328 2.60937,4.35547 0.80079,1.49609 1.52344,3.02734 2.17188,4.58984 0.64844,1.56641 1.21875,3.16016 1.71094,4.78516 0.49218,1.62109 0.90625,3.26172 1.23437,4.92578 0.33203,1.66015 0.57813,3.33594 0.7461,5.02344 0.16406,1.68359 0.25,3.375 0.25,5.07031 z m 0,0"
       fill-opacity="1"
       fill-rule="nonzero"
       id="path33" />
  </g>
  <g
     clip-path="url(#7758e372a8)"
     id="g39"
     style="fill:#03989e;fill-opacity:1"
     transform="translate(-72.644531,-107.1335)"
     inkscape:export-filename="/home/fpa/planets/tatooine/openobject/sunny-website/static/img/apache-sunny-favicon.png.png"
     inkscape:export-xdpi="96"
     inkscape:export-ydpi="96">
    <path
       fill="#03989e"
       d="m 123.59375,194.85937 c 38.3125,0 70.71094,-41.5625 83.92187,-37.77343 6.28907,1.77734 9.44141,-0.60547 12.23438,-2.98047 3.85156,-3.29688 7,-6.58985 16.76953,1.14062 9.25,7.32032 14.71875,-1.69922 20.96094,-10.71093 5.11719,-7.39063 10.7539,-14.77735 19.42187,-13.17579 19.24219,3.5625 25.78907,41.57032 25.78907,41.57032 H 72.644531 c 0,0 24.242188,21.92968 50.949219,21.92968"
       fill-opacity="1"
       fill-rule="nonzero"
       id="path37"
       style="fill:#03989e;fill-opacity:1" />
  </g>
  <g
     clip-path="url(#cae572990d)"
     id="g43"
     transform="translate(-72.644531,-107.1335)"
     inkscape:export-filename="/home/fpa/planets/tatooine/openobject/sunny-website/static/img/apache-sunny-favicon.png.png"
     inkscape:export-xdpi="96"
     inkscape:export-ydpi="96">
    <path
       fill="#5ce1e6"
       d="m 80.6875,178.32422 c 18.035156,12.11719 42.04688,10.33594 58.07031,-4.30469 0.40235,-0.40234 0.86328,-0.74609 1.26563,-1.08984 H 72.644531 l 8.042969,5.39453 m 133.31641,7.23437 c 15.625,15.5586 39.92187,18.25782 58.53125,6.48828 l 30.15625,-19.11718 H 201.08203 c 0.91797,0.80078 1.89453,1.66406 2.75781,2.52343 l 10.16407,10.10547 m -73.98047,-12.6289 h 61.05859 c -17.46094,-14.8711 -43.36719,-14.98828 -61.05859,0"
       fill-opacity="1"
       fill-rule="nonzero"
       id="path41" />
  </g>
  <g
     clip-path="url(#8e04bb5a0c)"
     id="g47"
     transform="translate(-72.644531,-107.1335)"
     inkscape:export-filename="/home/fpa/planets/tatooine/openobject/sunny-website/static/img/apache-sunny-favicon.png.png"
     inkscape:export-xdpi="96"
     inkscape:export-ydpi="96">
    <path
       fill="#00c4cc"
       d="m 153.08594,157.66016 c 3.53515,0 7.1914,1.29296 10.94531,4.35937 l 0.17187,0.14063 c -8.66406,1.17578 -17.08203,4.75781 -24.17968,10.76953 h -9.70703 c 6.875,-8.19922 14.50781,-15.27735 22.76953,-15.26953 m -80.441409,15.26953 c 0,0 16.84375,15.23437 37.917969,20.30859 -3.34375,2.02344 -6.58984,2.87109 -9.69141,2.87109 -16.175778,0 -28.226559,-23.17968 -28.226559,-23.17968"
       fill-opacity="1"
       fill-rule="nonzero"
       id="path45" />
  </g>
  <g
     clip-path="url(#e9cec920d8)"
     id="g51"
     transform="translate(-72.644531,-107.1335)"
     inkscape:export-filename="/home/fpa/planets/tatooine/openobject/sunny-website/static/img/apache-sunny-favicon.png.png"
     inkscape:export-xdpi="96"
     inkscape:export-ydpi="96">
    <path
       fill="#03989e"
       d="m 72.644531,172.92969 8.042969,5.39453 c 7.996094,5.37109 17.164062,8.01172 26.28906,8.01172 4.57813,0 9.15235,-0.66797 13.5586,-1.98438 -3.14453,3.42969 -6.22657,6.42188 -9.00391,8.26953 -0.32031,0.21485 -0.64844,0.42188 -0.96875,0.61719 -21.074219,-5.07422 -37.917969,-20.30859 -37.917969,-20.30859"
       fill-opacity="1"
       fill-rule="nonzero"
       id="path49" />
  </g>
  <path
     fill="#00c4cc"
     d="m 104.67969,65.796194 h 23.75781 c 0.91797,0.80078 1.89453,1.66406 2.75781,2.52343 l 10.16407,10.10547 c 2.30859,2.30078 4.80859,4.32032 7.44921,6.05469 -0.0273,0.0117 -0.0625,0.0234 -0.0977,0.0312 -3.71485,1.20703 -7.13281,1.75781 -10.33594,1.75781 -13.07422,0 -22.58203,-9.16015 -34.26953,-20.07812 0.1875,-0.12891 0.38281,-0.26172 0.57422,-0.39453"
     fill-opacity="1"
     fill-rule="nonzero"
     id="path53"
     inkscape:export-filename="/home/fpa/planets/tatooine/openobject/sunny-website/static/img/apache-sunny-favicon.png.png"
     inkscape:export-xdpi="96"
     inkscape:export-ydpi="96" />
  <path
     fill="#03989e"
     d="m 103.67969,65.796194 h 1 c -0.19141,0.13281 -0.38672,0.26562 -0.57422,0.39453 -0.14453,-0.12891 -0.28125,-0.26172 -0.42578,-0.39453"
     fill-opacity="1"
     fill-rule="nonzero"
     id="path55"
     inkscape:export-filename="/home/fpa/planets/tatooine/openobject/sunny-website/static/img/apache-sunny-favicon.png.png"
     inkscape:export-xdpi="96"
     inkscape:export-ydpi="96" />
  <g
     clip-path="url(#a4c37e9977)"
     id="g59"
     transform="translate(-72.644531,-107.1335)"
     inkscape:export-filename="/home/fpa/planets/tatooine/openobject/sunny-website/static/img/apache-sunny-favicon.png.png"
     inkscape:export-xdpi="96"
     inkscape:export-ydpi="96">
    <path
       fill="#00c4cc"
       d="m 283.70703,184.96484 c -7.87891,11.85938 -12.35937,28.44141 -24.66797,30.04688 -0.6875,0.0898 -1.33984,0.1289 -1.96875,0.1289 -7.5664,0 -10.8789,-6.16796 -14.28906,-12.33593 -0.73828,-1.34375 -1.48047,-2.6875 -2.27734,-3.96485 2.27343,0.33203 4.5664,0.5 6.86328,0.5 8.68359,0 17.41797,-2.39062 25.16797,-7.29297 l 11.17187,-7.08203"
       fill-opacity="1"
       fill-rule="nonzero"
       id="path57" />
  </g>
  <g
     clip-path="url(#d55ce1e200)"
     id="g63"
     transform="translate(-72.644531,-107.1335)"
     inkscape:export-filename="/home/fpa/planets/tatooine/openobject/sunny-website/static/img/apache-sunny-favicon.png.png"
     inkscape:export-xdpi="96"
     inkscape:export-ydpi="96">
    <path
       fill="#5ce1e6"
       d="m 164.20312,162.16016 c 4.41407,3.6289 8.375,7.30859 12.1211,10.76953 h -36.30078 c 7.09765,-6.01172 15.51562,-9.59375 24.17968,-10.76953 m -91.558589,10.76953 h 57.671879 c -3.1211,3.73437 -6.48047,7.82031 -9.78125,11.42187 -4.40625,1.31641 -8.98047,1.98438 -13.5586,1.98438 -9.124998,0 -18.292966,-2.64063 -26.28906,-8.01172 l -8.042969,-5.39453 m 103.679689,0 h 24.75781 -24.75781 m 24.75781,0 h 101.60938 c -8.84766,0 -14.47266,5.24218 -18.98438,12.03515 l -11.17187,7.08203 c -7.75,4.90235 -16.48438,7.29297 -25.16797,7.29297 -2.29688,0 -4.58985,-0.16797 -6.86328,-0.5 -2.85157,-4.59765 -6.33594,-8.375 -12.53516,-8.375 -1.89453,0 -4.05078,0.35547 -6.51563,1.14844 -2.64062,-1.73437 -5.14062,-3.75391 -7.44921,-6.05469 l -10.16407,-10.10547 c -0.86328,-0.85937 -1.83984,-1.72265 -2.75781,-2.52343"
       fill-opacity="1"
       fill-rule="nonzero"
       id="path61" />
  </g>
  <g
     fill="#ffde59"
     fill-opacity="1"
     id="g117"
     transform="translate(-82.1029,-99.931606)">
    <g
       transform="translate(201.73514,257.08596)"
       id="g115">
      <g
         id="g113" />
    </g>
  </g>
  <g
     fill="#03989e"
     fill-opacity="1"
     id="g227"
     transform="translate(-82.1029,-99.931606)">
    <g
       transform="translate(193.74535,278.13353)"
       id="g225">
      <g
         id="g223" />
    </g>
  </g>
  <g
     fill="#03989e"
     fill-opacity="1"
     id="g257"
     transform="translate(-82.1029,-99.931606)">
    <g
       transform="translate(211.75671,278.13353)"
       id="g255">
      <g
         id="g253" />
    </g>
  </g>
  <g
     inkscape:groupmode="layer"
     id="layer2"
     inkscape:label="feather"
     style="display:inline"
     transform="translate(-122.6029,-99.931606)">
    <g
       id="g756"
       transform="translate(124.05334,-106.5227)"
       inkscape:export-filename="/home/fpa/planets/tatooine/openobject/sunny-website/static/img/apache-sunny-favicon.png.png"
       inkscape:export-xdpi="96"
       inkscape:export-ydpi="96">
      <path
         fill="url(#SVGID_1_)"
         d="m 160.27293,206.69266 c -0.7857,0.46337 -2.09046,1.77642 -3.64882,3.67845 l 1.43156,2.70196 c 1.00493,-1.43749 2.02527,-2.7304 3.0551,-3.83488 0.0794,-0.0877 0.12087,-0.12917 0.12087,-0.12917 -0.0403,0.0427 -0.0806,0.0865 -0.12087,0.12917 -0.333,0.36737 -1.34387,1.54651 -2.86905,3.8882 1.4683,-0.0735 3.72467,-0.3733 5.56508,-0.68852 0.5475,-3.06695 -0.53684,-4.47126 -0.53684,-4.47126 0,0 -1.37823,-2.23029 -2.99703,-1.27395 z"
         id="path9"
         style="fill:url(#SVGID_1_);stroke-width:0.0118507" />
      <path
         fill="none"
         d="m 157.84947,222.10564 c 0.0107,-0.002 0.0213,-0.004 0.032,-0.006 l -0.2062,0.0225 c -0.013,0.006 -0.0237,0.0119 -0.0367,0.0166 0.0711,-0.0107 0.14103,-0.0225 0.21095,-0.0332 z"
         id="path11"
         style="stroke-width:0.0118507" />
      <path
         fill="none"
         d="m 156.38828,226.94546 c -0.11732,0.0261 -0.23701,0.0462 -0.35789,0.064 0.12088,-0.0178 0.24057,-0.0391 0.35789,-0.064 z"
         id="path13-3"
         style="stroke-width:0.0118507" />
      <path
         fill="none"
         d="m 146.45742,237.80185 c 0.0154,-0.0403 0.0308,-0.0806 0.045,-0.12088 0.31523,-0.83191 0.6269,-1.64013 0.93621,-2.4282 0.34722,-0.88406 0.6897,-1.73968 1.02863,-2.56922 0.35671,-0.87458 0.70867,-1.71953 1.0559,-2.53605 0.36381,-0.8568 0.72289,-1.6816 1.07485,-2.4756 0.28679,-0.64586 0.56883,-1.27158 0.84733,-1.87714 0.0924,-0.20147 0.18487,-0.40174 0.2773,-0.59965 0.1825,-0.39226 0.36382,-0.7774 0.54158,-1.15307 0.16472,-0.34722 0.32826,-0.68615 0.49061,-1.01916 0.0533,-0.11139 0.10785,-0.22042 0.16117,-0.33063 0.008,-0.0178 0.0178,-0.0356 0.0261,-0.0533 l -0.17539,0.019 -0.13983,-0.27493 c -0.013,0.0272 -0.0273,0.0533 -0.0415,0.0806 -0.25123,0.49891 -0.5001,1.00257 -0.74659,1.51096 -0.14221,0.2939 -0.28442,0.58898 -0.42544,0.88525 -0.39107,0.82125 -0.77622,1.64961 -1.15426,2.4839 -0.38277,0.84258 -0.75725,1.6899 -1.12462,2.53841 -0.36145,0.8331 -0.7146,1.66739 -1.06182,2.4993 -0.34604,0.83073 -0.68379,1.6591 -1.01442,2.48153 -0.34486,0.85918 -0.68023,1.71006 -1.00494,2.55145 -0.0735,0.18961 -0.14695,0.37923 -0.21924,0.56883 -0.26071,0.67905 -0.51431,1.34861 -0.76199,2.00988 l 0.22042,0.43492 0.19672,-0.0213 c 0.007,-0.0201 0.0142,-0.0403 0.0213,-0.0592 0.31878,-0.87103 0.63401,-1.71953 0.94687,-2.54553 z"
         id="path15"
         style="stroke-width:0.0118507" />
      <path
         fill="none"
         d="m 155.93914,227.02367 v 0 c 0.001,0 0.001,-0.001 0.002,-0.001 0,0 -10e-4,0 -0.002,0.001 z"
         id="path17"
         style="stroke-width:0.0118507" />
      <path
         fill="#be202e"
         d="m 155.46511,229.38314 c -0.1825,0.0332 -0.37092,0.0652 -0.56409,0.0984 -10e-4,0 -0.002,0.001 -0.004,0.001 0.0972,-0.0142 0.19317,-0.0284 0.28797,-0.045 0.0948,-0.0166 0.18724,-0.0344 0.27968,-0.0545 z"
         id="path19-6"
         style="stroke-width:0.0118507" />
      <path
         opacity="0.35"
         fill="#be202e"
         d="m 155.46511,229.38314 c -0.1825,0.0332 -0.37092,0.0652 -0.56409,0.0984 -10e-4,0 -0.002,0.001 -0.004,0.001 0.0972,-0.0142 0.19317,-0.0284 0.28797,-0.045 0.0948,-0.0166 0.18724,-0.0344 0.27968,-0.0545 z"
         id="path21"
         style="stroke-width:0.0118507" />
      <path
         fill="#be202e"
         d="m 155.94388,227.0213 c 0,0 -0.001,0 -0.001,0.001 -0.001,0 -0.001,0.001 -0.002,0.001 0.0308,-0.004 0.0604,-0.009 0.0901,-0.013 0.12206,-0.0178 0.24175,-0.0391 0.35789,-0.064 -0.14577,0.0237 -0.2939,0.0498 -0.4444,0.0747 z"
         id="path23"
         style="stroke-width:0.0118507" />
      <path
         opacity="0.35"
         fill="#be202e"
         d="m 155.94388,227.0213 c 0,0 -0.001,0 -0.001,0.001 -0.001,0 -0.001,0.001 -0.002,0.001 0.0308,-0.004 0.0604,-0.009 0.0901,-0.013 0.12206,-0.0178 0.24175,-0.0391 0.35789,-0.064 -0.14577,0.0237 -0.2939,0.0498 -0.4444,0.0747 z"
         id="path25"
         style="stroke-width:0.0118507" />
      <path
         fill="url(#SVGID_2_)"
         d="m 153.83564,220.05429 c 0.43493,-0.81295 0.87577,-1.60813 1.32135,-2.38198 0.46218,-0.80348 0.93028,-1.58325 1.40312,-2.33458 0.0272,-0.0439 0.0557,-0.0889 0.083,-0.13392 0.46691,-0.73948 0.93857,-1.45052 1.41378,-2.13074 l -1.43156,-2.70196 c -0.10784,0.13154 -0.21568,0.26546 -0.32589,0.40174 -0.4124,0.51432 -0.8414,1.06774 -1.28106,1.65435 -0.49536,0.66127 -1.00494,1.36757 -1.52281,2.10823 -0.47758,0.68497 -0.96227,1.40194 -1.44697,2.14379 -0.4124,0.63164 -0.82717,1.28224 -1.23839,1.94944 -0.0154,0.0249 -0.0308,0.0498 -0.0462,0.0747 l 1.86293,3.67964 c 0.39818,-0.78807 0.8011,-1.56547 1.20876,-2.32866 z"
         id="path36"
         style="fill:url(#SVGID_2_);stroke-width:0.0118507" />
      <path
         fill="url(#SVGID_3_)"
         d="m 145.35057,240.78703 c -0.2465,0.67786 -0.49417,1.36757 -0.74304,2.07268 -0.004,0.0107 -0.007,0.0201 -0.0107,0.0308 -0.0356,0.0995 -0.0699,0.19909 -0.10547,0.29864 -0.16709,0.47521 -0.31285,0.90302 -0.64586,1.87596 0.54869,0.25005 0.98953,0.90895 1.40668,1.65672 -0.0438,-0.77385 -0.36501,-1.50148 -0.97294,-2.06439 2.7055,0.12207 5.03653,-0.56172 6.24174,-2.53959 0.10784,-0.17658 0.2062,-0.36145 0.29508,-0.55935 -0.5475,0.69445 -1.22654,0.98953 -2.50523,0.91724 -0.002,0.001 -0.006,0.002 -0.008,0.004 0.002,-0.001 0.006,-0.002 0.008,-0.004 1.88189,-0.84258 2.82639,-1.6508 3.66067,-2.99111 0.19791,-0.3176 0.38989,-0.66482 0.58661,-1.04997 -1.64606,1.68991 -3.55283,2.17104 -5.56151,1.80604 l -1.50622,0.16473 c -0.0474,0.1268 -0.0936,0.2536 -0.13984,0.38159 z"
         id="path47"
         style="fill:url(#SVGID_3_);stroke-width:0.0118507" />
      <path
         fill="url(#SVGID_4_)"
         d="m 146.05331,237.41315 c 0.3259,-0.8414 0.66127,-1.69228 1.00494,-2.55145 0.32945,-0.82244 0.66838,-1.64961 1.01442,-2.48153 0.34603,-0.83192 0.70037,-1.66502 1.06182,-2.4993 0.36737,-0.84851 0.74303,-1.69584 1.12462,-2.53842 0.37804,-0.8331 0.76319,-1.66265 1.15426,-2.4839 0.14102,-0.29626 0.28323,-0.59135 0.42544,-0.88524 0.24649,-0.5084 0.49536,-1.01205 0.74659,-1.51096 0.013,-0.0272 0.0273,-0.0533 0.0415,-0.0806 l -1.86293,-3.67963 c -0.0308,0.0498 -0.0604,0.0996 -0.0913,0.14932 -0.43373,0.70867 -0.86628,1.43393 -1.29054,2.1746 -0.42899,0.74777 -0.84969,1.50977 -1.26091,2.28244 -0.34722,0.65178 -0.68615,1.30949 -1.0156,1.97313 -0.0664,0.1351 -0.13154,0.26783 -0.19672,0.40174 -0.40648,0.83547 -0.77266,1.6425 -1.10448,2.41872 -0.37567,0.87932 -0.7063,1.71953 -0.99546,2.5159 -0.1908,0.5238 -0.36382,1.02982 -0.52261,1.5157 -0.13036,0.41477 -0.25479,0.83073 -0.37212,1.24432 -0.27848,0.97531 -0.51787,1.94825 -0.71459,2.91763 l 1.87241,3.69622 c 0.24768,-0.66126 0.50128,-1.33083 0.76199,-2.00987 0.0723,-0.18842 0.14577,-0.37922 0.21924,-0.56883 z"
         id="path58"
         style="fill:url(#SVGID_4_);stroke-width:0.0118507" />
      <path
         fill="url(#SVGID_5_)"
         d="m 143.17479,236.42717 c -0.23465,1.1827 -0.40174,2.36066 -0.48588,3.5315 -0.002,0.0415 -0.007,0.0818 -0.009,0.12325 -0.58424,-0.9362 -2.14853,-1.84989 -2.14497,-1.84159 1.11988,1.62354 1.96958,3.23523 2.09638,4.81729 -0.59964,0.12325 -1.4209,-0.0545 -2.37013,-0.40411 0.98953,0.90895 1.73256,1.16018 2.02172,1.22773 -0.90895,0.0569 -1.85581,0.68142 -2.80979,1.40075 1.39482,-0.56883 2.52182,-0.79399 3.32885,-0.61149 -1.27987,3.62393 -2.5633,7.62472 -3.84673,11.872 0.39344,-0.11614 0.62809,-0.38041 0.75963,-0.7383 0.22872,-0.76911 1.74679,-5.81512 4.12522,-12.44794 0.0675,-0.18843 0.13628,-0.37804 0.20501,-0.56884 0.019,-0.0533 0.0391,-0.10665 0.0581,-0.15879 0.25124,-0.69564 0.51195,-1.40549 0.78096,-2.12957 0.0616,-0.16472 0.12325,-0.32945 0.18487,-0.49536 0.001,-0.004 0.002,-0.007 0.004,-0.009 l -1.87006,-3.69503 c -0.008,0.0415 -0.019,0.0841 -0.0272,0.12798 z"
         id="path69"
         style="fill:url(#SVGID_5_);stroke-width:0.0118507" />
      <path
         fill="url(#SVGID_6_)"
         d="m 152.91603,222.69344 c -0.0533,0.10902 -0.10665,0.21923 -0.16117,0.33063 -0.16116,0.333 -0.32471,0.67193 -0.49061,1.01915 -0.17895,0.37567 -0.35908,0.75963 -0.54158,1.15308 -0.0924,0.1979 -0.18368,0.39699 -0.2773,0.59964 -0.2785,0.60557 -0.56054,1.23128 -0.84733,1.87715 -0.35196,0.79399 -0.71104,1.6188 -1.07485,2.4756 -0.34723,0.81651 -0.69919,1.66146 -1.0559,2.53604 -0.33893,0.82955 -0.68141,1.68635 -1.02863,2.56923 -0.30931,0.78807 -0.62098,1.59628 -0.93621,2.4282 -0.0154,0.0403 -0.0308,0.0806 -0.045,0.12087 -0.31286,0.826 -0.62809,1.6745 -0.94568,2.54434 -0.007,0.0201 -0.0142,0.0403 -0.0213,0.0593 l 1.50622,-0.16473 c -0.0296,-0.006 -0.0604,-0.009 -0.0901,-0.0154 1.80131,-0.22398 4.19514,-1.57021 5.74284,-3.23168 0.71341,-0.76555 1.36045,-1.66857 1.95891,-2.72565 0.44559,-0.78688 0.86392,-1.65909 1.2621,-2.62492 0.34841,-0.84377 0.6826,-1.75746 1.00493,-2.74817 -0.41358,0.21805 -0.88761,0.37803 -1.41023,0.48943 -0.0913,0.019 -0.18486,0.0379 -0.27967,0.0545 -0.0948,0.0166 -0.1908,0.032 -0.28797,0.045 v 0 0 c 0.001,0 0.002,-0.001 0.004,-0.001 1.67924,-0.64586 2.73869,-1.89374 3.50899,-3.42129 -0.44203,0.30101 -1.16018,0.69564 -2.02054,0.88525 -0.11732,0.0261 -0.23701,0.0462 -0.35789,0.064 -0.0308,0.005 -0.0604,0.009 -0.0901,0.013 v 0 0 c 0.001,0 0.001,-0.001 0.002,-0.001 0,0 0.001,0 0.001,-0.001 v 0 c 0.58305,-0.24412 1.07486,-0.51669 1.50148,-0.83902 0.0913,-0.0687 0.18013,-0.13984 0.26545,-0.2145 0.13036,-0.11258 0.25361,-0.23109 0.37211,-0.35552 0.0759,-0.0794 0.14933,-0.16117 0.22043,-0.2465 0.16709,-0.19909 0.32352,-0.41359 0.47047,-0.64704 0.045,-0.0711 0.0889,-0.1434 0.13273,-0.21806 0.0557,-0.10784 0.10902,-0.21331 0.16117,-0.3176 0.23464,-0.47165 0.42188,-0.89235 0.5712,-1.26209 0.0747,-0.18487 0.13984,-0.35552 0.19553,-0.51432 0.0225,-0.0628 0.0438,-0.12443 0.064,-0.18369 0.0592,-0.17776 0.10784,-0.33537 0.14576,-0.47402 0.0569,-0.20739 0.0913,-0.37211 0.11021,-0.4918 v 0 0 c -0.0569,0.045 -0.12206,0.0901 -0.19553,0.13391 -0.50721,0.30338 -1.37705,0.57831 -2.07861,0.70748 l 1.38297,-0.15168 -1.38297,0.15168 c -0.0107,0.002 -0.0213,0.004 -0.032,0.006 -0.0699,0.0118 -0.14102,0.0225 -0.21212,0.0344 0.013,-0.006 0.0237,-0.0119 0.0367,-0.0166 l -4.73197,0.51906 c -0.008,0.0166 -0.0166,0.0332 -0.0261,0.051 z"
         id="path80"
         style="fill:url(#SVGID_6_);stroke-width:0.0118507" />
      <path
         fill="url(#SVGID_7_)"
         d="m 158.24291,213.12758 c -0.4207,0.64586 -0.88051,1.37942 -1.37468,2.21015 -0.0261,0.0427 -0.0521,0.0877 -0.0782,0.13154 -0.42663,0.71933 -0.88051,1.50859 -1.35691,2.37369 -0.4124,0.74659 -0.84139,1.54769 -1.28698,2.40924 -0.3887,0.75014 -0.79044,1.54651 -1.20284,2.38909 l 4.73197,-0.51906 c 1.37823,-0.63401 1.99447,-1.20758 2.59293,-2.03713 0.1588,-0.22872 0.31878,-0.4681 0.47758,-0.71578 0.48587,-0.75844 0.96227,-1.59391 1.3889,-2.42464 0.41121,-0.80229 0.77384,-1.59747 1.05234,-2.31444 0.17657,-0.45625 0.31878,-0.8805 0.41714,-1.25261 0.0865,-0.32827 0.15406,-0.63994 0.2062,-0.93739 -1.84278,0.31404 -4.09915,0.61505 -5.56744,0.68734 z"
         id="path91"
         style="fill:url(#SVGID_7_);stroke-width:0.0118507" />
      <path
         fill="#be202e"
         d="m 155.18543,229.43765 c -0.0948,0.0166 -0.19079,0.032 -0.28797,0.045 v 0 c 0.0972,-0.013 0.19317,-0.0284 0.28797,-0.045 z"
         id="path93"
         style="stroke-width:0.0118507" />
      <path
         opacity="0.35"
         fill="#be202e"
         d="m 155.18543,229.43765 c -0.0948,0.0166 -0.19079,0.032 -0.28797,0.045 v 0 c 0.0972,-0.013 0.19317,-0.0284 0.28797,-0.045 z"
         id="path95"
         style="stroke-width:0.0118507" />
      <path
         fill="url(#SVGID_8_)"
         d="m 155.18543,229.43765 c -0.0948,0.0166 -0.19079,0.032 -0.28797,0.045 v 0 c 0.0972,-0.013 0.19317,-0.0284 0.28797,-0.045 z"
         id="path106"
         style="fill:url(#SVGID_8_);stroke-width:0.0118507" />
      <path
         fill="#be202e"
         d="m 155.93914,227.02367 c 0.0308,-0.004 0.0604,-0.009 0.0901,-0.013 -0.0296,0.004 -0.0592,0.008 -0.0901,0.013 z"
         id="path108"
         style="stroke-width:0.0118507" />
      <path
         opacity="0.35"
         fill="#be202e"
         d="m 155.93914,227.02367 c 0.0308,-0.004 0.0604,-0.009 0.0901,-0.013 -0.0296,0.004 -0.0592,0.008 -0.0901,0.013 z"
         id="path110"
         style="stroke-width:0.0118507" />
      <path
         fill="url(#SVGID_9_)"
         d="m 155.93914,227.02367 c 0.0308,-0.004 0.0604,-0.009 0.0901,-0.013 -0.0296,0.004 -0.0592,0.008 -0.0901,0.013 z"
         id="path121"
         style="fill:url(#SVGID_9_);stroke-width:0.0118507" />
      <path
         fill="#be202e"
         d="m 155.94269,227.02248 c 0,0 0.001,0 0.001,-0.001 v 0 0 0 c 0,0 -0.001,0 -0.001,0.001 z"
         id="path123"
         style="stroke-width:0.0118507" />
      <path
         opacity="0.35"
         fill="#be202e"
         d="m 155.94269,227.02248 c 0,0 0.001,0 0.001,-0.001 v 0 0 0 c 0,0 -0.001,0 -0.001,0.001 z"
         id="path125"
         style="stroke-width:0.0118507" />
      <path
         fill="url(#SVGID_10_)"
         d="m 155.94269,227.02248 c 0,0 0.001,0 0.001,-0.001 v 0 0 0 c 0,0 -0.001,0 -0.001,0.001 z"
         id="path136"
         style="fill:url(#SVGID_10_);stroke-width:0.0118507" />
      <path
         fill="#6d6e71"
         d="m 165.24784,211.04068 v 0.13865 h 0.3247 v 0.91724 h 0.15051 v -0.91724 h 0.32708 v -0.13865 z m 1.87596,0 -0.36263,0.73711 -0.365,-0.73711 h -0.18132 v 1.05589 h 0.13865 v -0.83784 l 0.35908,0.72644 h 0.096 l 0.35907,-0.72644 v 0.83784 h 0.13866 v -1.05589 z"
         id="path138"
         style="stroke-width:0.0118507" />
    </g>
  </g>
</svg>
